<?xml version="1.0" encoding="utf-8"?>
<svg viewBox="0 0 200 200" width="200px" height="200px" xmlns="http://www.w3.org/2000/svg" xmlns:bx="https://boxy-svg.com">
  <defs>
    <bx:guide x="99.747" y="-78.084" angle="0"/>
    <bx:guide x="116.223" y="100.401" angle="90"/>
  </defs>
  <path d="M 37.225 10.566 C 34.488 16.788 38.135 29.034 44.701 35.066 L 49.811 39.636 L 44.341 43.477 C 37.225 48.232 31.388 56.271 32.845 58.832 C 33.574 59.929 39.411 60.845 46.165 60.845 C 57.838 60.845 58.202 60.661 64.768 53.531 C 72.98 44.573 83.925 40.732 101.437 40.732 C 156.168 40.732 189.373 93.935 166.204 144.391 C 156.897 164.685 128.985 184.794 107.642 186.621 C 86.844 188.27 53.459 169.803 39.048 148.597 C 30.839 136.712 25.731 118.433 27.371 107.644 C 28.104 103.44 30.657 95.762 33.208 90.642 C 37.589 81.685 37.771 77.297 33.938 77.297 C 30.839 77.297 23.176 92.835 21.349 103.44 C 15.698 134.702 36.129 167.062 73.347 185.524 C 88.124 192.838 90.312 193.387 103.994 193.387 C 116.765 193.387 120.414 192.656 130.627 187.721 C 144.311 181.325 162.918 164.869 169.485 153.531 C 183.717 129.036 183.898 95.031 169.672 70.714 C 163.102 59.381 148.505 46.768 135.005 40.369 C 118.771 32.689 95.054 31.229 79.181 36.527 L 68.601 40.183 L 68.601 34.15 C 68.601 26.29 60.209 16.421 48.169 10.386 L 39.411 5.999 L 37.225 10.566 Z M 59.114 28.118 C 63.488 34.517 64.405 38.906 61.124 38.906 C 57.289 38.906 43.061 23.002 43.061 18.796 L 43.061 14.772 L 49.081 18.428 C 52.186 20.441 56.745 24.827 59.114 28.118 Z M 57.108 50.792 C 52.186 55.175 43.061 57.004 43.061 53.713 C 43.061 50.792 51.271 46.402 56.745 46.402 L 62.212 46.402 L 57.108 50.792 Z" style="fill: rgb(131, 158, 98); stroke-width: 0px;">
    <title>O</title>
  </path>
</svg>